<?xml version="1.0" encoding="UTF-8" standalone="no"?>
<svg width="40px" height="40px" viewBox="0 0 40 40" version="1.1" xmlns="http://www.w3.org/2000/svg" xmlns:xlink="http://www.w3.org/1999/xlink">
    <!-- Generator: Sketch 44.1 (41455) - http://www.bohemiancoding.com/sketch -->
    <title>User_Icon_DÖRTE</title>
    <desc>Created with Sketch.</desc>
    <defs></defs>
    <g id="Symbols" stroke="none" stroke-width="1" fill="none" fill-rule="evenodd">
        <g id="User_Icon_DÖRTE" fill="#fff">
            <g id="User_Icon" transform="translate(10.000000, 7.000000)">
                <path d="M18.5714286,21.5625 L1.42857143,21.5625 L1.42857143,20.84375 C1.42857143,17.8983125 4.30571429,17.2615 4.42571429,17.235625 L5.14714286,17.0904375 C5.62071429,18.3151875 7.06,20.125 10,20.125 C12.94,20.125 14.3792857,18.3151875 14.8528571,17.0911563 L15.5742857,17.2363438 C15.6964286,17.2607813 18.5714286,17.8731563 18.5714286,20.84375 L18.5714286,21.5625 Z M7.36214286,16.6448125 C7.69071429,17.3031875 8.44785714,17.96875 10,17.96875 C11.5521429,17.96875 12.3092857,17.3031875 12.6378571,16.6448125 L13.4121429,16.8007812 C13.0714286,17.4764062 12.1607143,18.6875 10,18.6875 C7.83857143,18.6875 6.92928571,17.4807187 6.58714286,16.8007812 L7.36214286,16.6448125 Z M11.4285714,14.375 L11.4285714,15.7945313 C11.42,15.92175 11.3085714,16.53125 10,16.53125 C8.69142857,16.53125 8.58,15.92175 8.57142857,15.7945313 L8.57142857,14.375 L11.4285714,14.375 Z M11.4285714,12.9375 L8.57142857,12.9375 C7.39,12.9375 6.42857143,11.9700625 6.42857143,10.78125 L6.42857143,7.6316875 L9.81,5.93040625 C10.405,6.578 11.6542857,7.64534375 13.5714286,7.866 L13.5714286,10.78125 C13.5714286,11.9700625 12.61,12.9375 11.4285714,12.9375 Z M4.90642857,3.0029375 C5.78642857,1.97871875 7.54785714,1.4375 10,1.4375 C12.4521429,1.4375 14.2135714,1.97871875 15.0935714,3.0029375 C15.8614286,3.89634375 15.7292857,4.87815625 15.7242857,4.91265625 C15.7171429,4.9521875 15.7142857,4.99171875 15.7142857,5.03125 L15.7142857,15.798125 L12.8571429,15.223125 L12.8571429,14.07025 C14.1164286,13.5139375 15,12.2510937 15,10.78125 L15,7.1875 C15,6.79075 14.68,6.46875 14.2857143,6.46875 C11.8664286,6.46875 10.6428571,4.70421875 10.5942857,4.63234375 C10.3942857,4.3311875 10.0035714,4.22696875 9.68071429,4.38796875 L5.395,6.54421875 C5.15285714,6.66640625 5,6.91509375 5,7.1875 L5,10.78125 C5,12.2510937 5.88357143,13.5139375 7.14285714,14.07025 L7.14285714,15.223125 L4.28571429,15.798125 L4.28571429,5.03125 C4.28571429,4.99675 4.28214286,4.95434375 4.27714286,4.91984375 C4.27071429,4.878875 4.13857143,3.89634375 4.90642857,3.0029375 Z M17.1428571,16.2861563 L17.1428571,5.07653125 C17.1807143,4.7423125 17.2607143,3.35296875 16.2021429,2.095875 C15.0314286,0.70509375 12.945,0 10,0 C7.055,0 4.96857143,0.70509375 3.79785714,2.095875 C2.73928571,3.35296875 2.81928571,4.7423125 2.85714286,5.07653125 L2.85714286,16.2861563 C1.49857143,16.9689688 0,18.3834688 0,20.84375 L0,22.28125 C0,22.678 0.32,23 0.714285714,23 L19.2857143,23 C19.68,23 20,22.678 20,22.28125 L20,20.84375 C20,18.3834688 18.5014286,16.9689688 17.1428571,16.2861563 L17.1428571,16.2861563 Z" id="Fill-1-Copy"></path>
            </g>
        </g>
    </g>
</svg>
